sim_grf.mot
version=1
nRows=33
nColumns=19
inDegrees=no
endheader
time	ground_force_vx	ground_force_vy	ground_force_vz	ground_force_px	ground_force_py	ground_force_pz	1_ground_force_vx	1_ground_force_vy	1_ground_force_vz	1_ground_force_px	1_ground_force_py	1_ground_force_pz	ground_torque_x	ground_torque_y	ground_torque_z	1_ground_torque_x	1_ground_torque_y	1_ground_torque_z
0.000000	-105.435000	110.017000	-0.000000	0.038754	-0.000000	0.106420	-0.000000	-0.000000	-0.000000	0.000000	0.000000	0.000000	0.000000	0.000000	0.000000	0.000000	0.000000	0.000000
0.010000	42.340200	79.537100	-0.000000	0.044434	-0.000000	0.106420	-0.000000	-0.000000	-0.000000	0.000000	0.000000	0.000000	0.000000	0.000000	0.000000	0.000000	0.000000	0.000000
0.020000	17.708700	85.798000	-0.000000	0.044982	-0.000000	0.106420	-0.000000	-0.000000	-0.000000	0.000000	0.000000	0.000000	0.000000	0.000000	0.000000	0.000000	0.000000	0.000000
0.030000	16.088500	110.791000	-0.000000	0.046485	-0.000000	0.106420	-0.000000	-0.000000	-0.000000	0.000000	0.000000	0.000000	0.000000	0.000000	0.000000	0.000000	0.000000	0.000000
0.040000	9.265830	159.676000	-0.000000	0.047967	-0.000000	0.106420	-0.000000	-0.000000	-0.000000	0.000000	0.000000	0.000000	0.000000	0.000000	0.000000	0.000000	0.000000	0.000000
0.050000	-116.534000	532.998000	-0.000000	0.106382	-0.000000	0.112076	-0.000000	-0.000000	-0.000000	0.000000	0.000000	0.000000	0.000000	0.000000	0.000000	0.000000	0.000000	0.000000
0.060000	-105.524000	881.139000	-0.000000	0.100306	-0.000000	0.111506	-0.000000	-0.000000	-0.000000	0.000000	0.000000	0.000000	0.000000	0.000000	0.000000	0.000000	0.000000	0.000000
0.070000	-130.395000	1192.500000	-0.000000	0.101307	-0.000000	0.111638	-0.000000	-0.000000	-0.000000	0.000000	0.000000	0.000000	0.000000	0.000000	0.000000	0.000000	0.000000	0.000000
0.080000	-131.670000	1360.440000	-0.000000	0.100526	-0.000000	0.111580	-0.000000	-0.000000	-0.000000	0.000000	0.000000	0.000000	0.000000	0.000000	0.000000	0.000000	0.000000	0.000000
0.090000	-113.130000	1370.560000	-0.000000	0.100740	-0.000000	0.111603	-0.000000	-0.000000	-0.000000	0.000000	0.000000	0.000000	0.000000	0.000000	0.000000	0.000000	0.000000	0.000000
0.100000	-95.469900	1269.670000	-0.000000	0.101664	-0.000000	0.111690	-0.000000	-0.000000	-0.000000	0.000000	0.000000	0.000000	0.000000	0.000000	0.000000	0.000000	0.000000	0.000000
0.110000	-73.148600	1123.110000	-0.000000	0.104277	-0.000000	0.111924	-0.000000	-0.000000	-0.000000	0.000000	0.000000	0.000000	0.000000	0.000000	0.000000	0.000000	0.000000	0.000000
0.120000	-56.614600	973.658000	-0.000000	0.107932	-0.000000	0.112255	-0.000000	-0.000000	-0.000000	0.000000	0.000000	0.000000	0.000000	0.000000	0.000000	0.000000	0.000000	0.000000
0.130000	-45.268400	842.931000	-0.000000	0.112382	-0.000000	0.112658	-0.000000	-0.000000	-0.000000	0.000000	0.000000	0.000000	0.000000	0.000000	0.000000	0.000000	0.000000	0.000000
0.140000	-36.509800	736.546000	-0.000000	0.117491	-0.000000	0.113121	-0.000000	-0.000000	-0.000000	0.000000	0.000000	0.000000	0.000000	0.000000	0.000000	0.000000	0.000000	0.000000
0.150000	-30.996000	652.859000	-0.000000	0.123238	-0.000000	0.113644	-0.000000	-0.000000	-0.000000	0.000000	0.000000	0.000000	0.000000	0.000000	0.000000	0.000000	0.000000	0.000000
0.160000	-27.101300	588.399000	-0.000000	0.129523	-0.000000	0.114217	-0.000000	-0.000000	-0.000000	0.000000	0.000000	0.000000	0.000000	0.000000	0.000000	0.000000	0.000000	0.000000
0.170000	-28.386600	539.767000	-0.000000	0.136362	-0.000000	0.114847	-0.000000	-0.000000	-0.000000	0.000000	0.000000	0.000000	0.000000	0.000000	0.000000	0.000000	0.000000	0.000000
0.180000	-26.189000	503.189000	-0.000000	0.143157	-0.000000	0.115467	-0.000000	-0.000000	-0.000000	0.000000	0.000000	0.000000	0.000000	0.000000	0.000000	0.000000	0.000000	0.000000
0.190000	-23.882900	478.090000	-0.000000	0.150009	-0.000000	0.116094	-0.000000	-0.000000	-0.000000	0.000000	0.000000	0.000000	0.000000	0.000000	0.000000	0.000000	0.000000	0.000000
0.200000	-20.670200	464.207000	-0.000000	0.156457	-0.000000	0.116683	-0.000000	-0.000000	-0.000000	0.000000	0.000000	0.000000	0.000000	0.000000	0.000000	0.000000	0.000000	0.000000
0.210000	-18.969300	461.768000	-0.000000	0.162201	-0.000000	0.117210	-0.000000	-0.000000	-0.000000	0.000000	0.000000	0.000000	0.000000	0.000000	0.000000	0.000000	0.000000	0.000000
0.220000	-17.173100	470.618000	-0.000000	0.166639	-0.000000	0.117615	-0.000000	-0.000000	-0.000000	0.000000	0.000000	0.000000	0.000000	0.000000	0.000000	0.000000	0.000000	0.000000
0.230000	-14.328000	490.556000	-0.000000	0.169448	-0.000000	0.117867	-0.000000	-0.000000	-0.000000	0.000000	0.000000	0.000000	0.000000	0.000000	0.000000	0.000000	0.000000	0.000000
0.240000	-13.359100	521.543000	-0.000000	0.170771	-0.000000	0.117983	-0.000000	-0.000000	-0.000000	0.000000	0.000000	0.000000	0.000000	0.000000	0.000000	0.000000	0.000000	0.000000
0.250000	-8.208170	565.606000	-0.000000	0.169703	-0.000000	0.117868	-0.000000	-0.000000	-0.000000	0.000000	0.000000	0.000000	0.000000	0.000000	0.000000	0.000000	0.000000	0.000000
0.260000	-8.964840	639.271000	-0.000000	0.167070	-0.000000	0.117614	-0.000000	-0.000000	-0.000000	0.000000	0.000000	0.000000	0.000000	0.000000	0.000000	0.000000	0.000000	0.000000
0.270000	7.074170	695.869000	-0.000000	0.164782	-0.000000	0.117381	-0.000000	-0.000000	-0.000000	0.000000	0.000000	0.000000	0.000000	0.000000	0.000000	0.000000	0.000000	0.000000
0.280000	27.997800	738.223000	-0.000000	0.163925	-0.000000	0.117284	-0.000000	-0.000000	-0.000000	0.000000	0.000000	0.000000	0.000000	0.000000	0.000000	0.000000	0.000000	0.000000
0.290000	45.513300	762.265000	-0.000000	0.165130	-0.000000	0.117388	-0.000000	-0.000000	-0.000000	0.000000	0.000000	0.000000	0.000000	0.000000	0.000000	0.000000	0.000000	0.000000
0.300000	56.191800	767.176000	-0.000000	0.168218	-0.000000	0.117676	-0.000000	-0.000000	-0.000000	0.000000	0.000000	0.000000	0.000000	0.000000	0.000000	0.000000	0.000000	0.000000
0.310000	63.444100	756.952000	-0.000000	0.173364	-0.000000	0.118162	-0.000000	-0.000000	-0.000000	0.000000	0.000000	0.000000	0.000000	0.000000	0.000000	0.000000	0.000000	0.000000
0.320000	63.844000	735.662000	-0.000000	0.180209	-0.000000	0.118813	-0.000000	-0.000000	-0.000000	0.000000	0.000000	0.000000	0.000000	0.000000	0.000000	0.000000	0.000000	0.000000
